<svg width="666" height="220" viewBox="0 0 666 220" fill="none" xmlns="http://www.w3.org/2000/svg">
<rect width="666" height="220" rx="33" fill="white"/>
<rect x="143" y="39" width="481" height="20" rx="10" fill="#D9D9D9"/>
<rect x="143" y="39" width="388" height="20" rx="10" fill="#00FF4D"/>
<path d="M556.295 43.679C556.713 43.6823 557.131 43.7618 557.548 43.9176C557.966 44.0734 558.347 44.3319 558.692 44.6932C559.036 45.0511 559.313 45.54 559.522 46.1598C559.731 46.7796 559.835 47.5568 559.835 48.4915C559.835 49.3963 559.749 50.2 559.577 50.9027C559.408 51.602 559.162 52.192 558.841 52.6726C558.523 53.1532 558.135 53.5178 557.678 53.7663C557.223 54.0149 556.71 54.1392 556.136 54.1392C555.566 54.1392 555.058 54.0265 554.61 53.8011C554.166 53.5724 553.801 53.2559 553.516 52.8516C553.235 52.4439 553.054 51.9716 552.974 51.4347H554.188C554.297 51.902 554.514 52.2881 554.839 52.593C555.167 52.8946 555.599 53.0455 556.136 53.0455C556.922 53.0455 557.542 52.7024 557.996 52.0163C558.453 51.3303 558.682 50.3608 558.682 49.108H558.602C558.417 49.3864 558.196 49.6267 557.941 49.8288C557.686 50.031 557.402 50.1868 557.091 50.2962C556.779 50.4055 556.448 50.4602 556.097 50.4602C555.513 50.4602 554.978 50.3161 554.491 50.0277C554.007 49.736 553.619 49.3366 553.327 48.8295C553.039 48.3191 552.895 47.7358 552.895 47.0795C552.895 46.4564 553.034 45.8864 553.312 45.3693C553.594 44.849 553.989 44.4347 554.496 44.1264C555.006 43.8182 555.606 43.669 556.295 43.679ZM556.295 44.7727C555.878 44.7727 555.502 44.8771 555.167 45.0859C554.835 45.2914 554.572 45.5698 554.376 45.9212C554.184 46.2692 554.088 46.6553 554.088 47.0795C554.088 47.5038 554.181 47.8899 554.366 48.2379C554.555 48.5826 554.812 48.8577 555.137 49.0632C555.465 49.2654 555.838 49.3665 556.256 49.3665C556.571 49.3665 556.864 49.3052 557.136 49.1825C557.407 49.0566 557.644 48.8859 557.847 48.6705C558.052 48.4517 558.213 48.2048 558.329 47.9297C558.445 47.6513 558.503 47.3613 558.503 47.0597C558.503 46.6619 558.407 46.2891 558.214 45.9411C558.026 45.593 557.764 45.3113 557.429 45.0959C557.098 44.8804 556.72 44.7727 556.295 44.7727ZM566.511 54.1392C565.762 54.1392 565.124 53.9354 564.597 53.5277C564.07 53.1167 563.668 52.5218 563.389 51.7429C563.111 50.9607 562.972 50.0161 562.972 48.9091C562.972 47.8087 563.111 46.8691 563.389 46.0902C563.671 45.308 564.075 44.7114 564.602 44.3004C565.133 43.8861 565.769 43.679 566.511 43.679C567.254 43.679 567.888 43.8861 568.415 44.3004C568.946 44.7114 569.35 45.308 569.629 46.0902C569.91 46.8691 570.051 47.8087 570.051 48.9091C570.051 50.0161 569.912 50.9607 569.633 51.7429C569.355 52.5218 568.952 53.1167 568.425 53.5277C567.898 53.9354 567.26 54.1392 566.511 54.1392ZM566.511 53.0455C567.254 53.0455 567.83 52.6875 568.241 51.9716C568.652 51.2557 568.858 50.2348 568.858 48.9091C568.858 48.0275 568.763 47.2768 568.575 46.657C568.389 46.0372 568.12 45.5649 567.769 45.2401C567.421 44.9152 567.002 44.7528 566.511 44.7528C565.776 44.7528 565.2 45.1158 564.786 45.8416C564.372 46.5642 564.165 47.5866 564.165 48.9091C564.165 49.7907 564.258 50.5398 564.443 51.1562C564.629 51.7727 564.896 52.2417 565.244 52.5632C565.595 52.8847 566.017 53.0455 566.511 53.0455ZM578.531 52.0909V51.554C578.531 51.1828 578.607 50.843 578.759 50.5348C578.915 50.2232 579.14 49.9747 579.435 49.7891C579.734 49.6001 580.095 49.5057 580.519 49.5057C580.95 49.5057 581.311 49.6001 581.603 49.7891C581.895 49.9747 582.115 50.2232 582.264 50.5348C582.413 50.843 582.488 51.1828 582.488 51.554V52.0909C582.488 52.4621 582.412 52.8035 582.259 53.1151C582.11 53.4233 581.888 53.6719 581.593 53.8608C581.301 54.0464 580.944 54.1392 580.519 54.1392C580.088 54.1392 579.725 54.0464 579.431 53.8608C579.136 53.6719 578.912 53.4233 578.759 53.1151C578.607 52.8035 578.531 52.4621 578.531 52.0909ZM579.545 51.554V52.0909C579.545 52.3991 579.618 52.6759 579.764 52.9212C579.909 53.1631 580.161 53.2841 580.519 53.2841C580.867 53.2841 581.113 53.1631 581.255 52.9212C581.401 52.6759 581.474 52.3991 581.474 52.0909V51.554C581.474 51.2457 581.404 50.9706 581.265 50.7287C581.126 50.4834 580.877 50.3608 580.519 50.3608C580.171 50.3608 579.921 50.4834 579.769 50.7287C579.619 50.9706 579.545 51.2457 579.545 51.554ZM573.46 46.2642V45.7273C573.46 45.3561 573.536 45.0163 573.688 44.7081C573.844 44.3965 574.069 44.148 574.364 43.9624C574.663 43.7734 575.024 43.679 575.448 43.679C575.879 43.679 576.24 43.7734 576.532 43.9624C576.824 44.148 577.044 44.3965 577.193 44.7081C577.342 45.0163 577.417 45.3561 577.417 45.7273V46.2642C577.417 46.6354 577.341 46.9768 577.188 47.2884C577.039 47.5966 576.817 47.8452 576.522 48.0341C576.23 48.2197 575.873 48.3125 575.448 48.3125C575.017 48.3125 574.654 48.2197 574.359 48.0341C574.064 47.8452 573.841 47.5966 573.688 47.2884C573.536 46.9768 573.46 46.6354 573.46 46.2642ZM574.474 45.7273V46.2642C574.474 46.5724 574.547 46.8492 574.693 47.0945C574.838 47.3364 575.09 47.4574 575.448 47.4574C575.796 47.4574 576.042 47.3364 576.184 47.0945C576.33 46.8492 576.403 46.5724 576.403 46.2642V45.7273C576.403 45.419 576.333 45.1439 576.194 44.902C576.055 44.6567 575.806 44.5341 575.448 44.5341C575.1 44.5341 574.85 44.6567 574.698 44.902C574.548 45.1439 574.474 45.419 574.474 45.7273ZM573.837 54L580.837 43.8182H581.971L574.971 54H573.837Z" fill="black"/>
<rect x="143" y="100" width="481" height="20" rx="10" fill="#D9D9D9"/>
<rect x="143" y="161" width="481" height="20" rx="10" fill="#D9D9D9"/>
<path d="M33.321 59V41.5455H37.5398V48.5511H44.4176V41.5455H48.6278V59H44.4176V51.9858H37.5398V59H33.321ZM53.1031 44.9716V41.5455H67.856V44.9716H62.5634V59H58.4043V44.9716H53.1031ZM72.3163 41.5455H77.5408L81.9726 52.3523H82.1771L86.6089 41.5455H91.8334V59H87.7254V48.2784H87.5805L83.3874 58.8892H80.7624L76.5692 48.2188H76.4243V59H72.3163V41.5455ZM96.8648 59V41.5455H101.084V55.5739H108.345V59H96.8648Z" fill="black"/>
<path d="M60.1648 108.869H55.9034C55.8466 108.432 55.7301 108.037 55.554 107.685C55.3778 107.332 55.1449 107.031 54.8551 106.781C54.5653 106.531 54.2216 106.341 53.8239 106.21C53.4318 106.074 52.9972 106.006 52.5199 106.006C51.6733 106.006 50.9432 106.213 50.3295 106.628C49.7216 107.043 49.2528 107.642 48.9233 108.426C48.5994 109.21 48.4375 110.159 48.4375 111.273C48.4375 112.432 48.6023 113.403 48.9318 114.188C49.267 114.966 49.7358 115.554 50.3381 115.952C50.946 116.344 51.6648 116.54 52.4943 116.54C52.9602 116.54 53.3835 116.48 53.7642 116.361C54.1506 116.241 54.4886 116.068 54.7784 115.841C55.0739 115.608 55.3153 115.327 55.5028 114.997C55.696 114.662 55.8295 114.284 55.9034 113.864L60.1648 113.889C60.0909 114.662 59.8665 115.423 59.4915 116.173C59.1222 116.923 58.6136 117.608 57.9659 118.227C57.3182 118.841 56.5284 119.33 55.5966 119.693C54.6705 120.057 53.608 120.239 52.4091 120.239C50.8295 120.239 49.4148 119.892 48.1648 119.199C46.9205 118.5 45.9375 117.483 45.2159 116.148C44.4943 114.812 44.1335 113.187 44.1335 111.273C44.1335 109.352 44.5 107.724 45.233 106.389C45.9659 105.054 46.9574 104.04 48.2074 103.347C49.4574 102.653 50.858 102.307 52.4091 102.307C53.4659 102.307 54.4432 102.455 55.3409 102.75C56.2386 103.04 57.0284 103.466 57.7102 104.028C58.392 104.585 58.946 105.27 59.3722 106.082C59.7983 106.895 60.0625 107.824 60.1648 108.869ZM74.4135 107.778C74.3567 107.153 74.1038 106.668 73.655 106.321C73.2118 105.969 72.5783 105.793 71.7544 105.793C71.2089 105.793 70.7544 105.864 70.3908 106.006C70.0271 106.148 69.7544 106.344 69.5726 106.594C69.3908 106.838 69.297 107.119 69.2913 107.438C69.28 107.699 69.3311 107.929 69.4447 108.128C69.5641 108.327 69.7345 108.503 69.9561 108.656C70.1834 108.804 70.4561 108.935 70.7743 109.048C71.0925 109.162 71.4504 109.261 71.8482 109.347L73.3482 109.688C74.2118 109.875 74.9732 110.125 75.6322 110.438C76.297 110.75 76.8538 111.122 77.3027 111.554C77.7572 111.986 78.101 112.483 78.3339 113.045C78.5669 113.608 78.6862 114.239 78.6919 114.938C78.6862 116.04 78.4078 116.986 77.8567 117.776C77.3055 118.565 76.5129 119.17 75.4788 119.591C74.4504 120.011 73.2089 120.222 71.7544 120.222C70.2942 120.222 69.0214 120.003 67.9362 119.565C66.851 119.128 66.0072 118.463 65.405 117.571C64.8027 116.679 64.493 115.551 64.476 114.188H68.5158C68.5499 114.75 68.7004 115.219 68.9675 115.594C69.2345 115.969 69.601 116.253 70.0669 116.446C70.5385 116.639 71.0839 116.736 71.7033 116.736C72.2714 116.736 72.7544 116.659 73.1521 116.506C73.5555 116.352 73.8652 116.139 74.0811 115.866C74.297 115.594 74.4078 115.281 74.4135 114.929C74.4078 114.599 74.3055 114.318 74.1067 114.085C73.9078 113.847 73.601 113.642 73.1862 113.472C72.7771 113.295 72.2544 113.134 71.618 112.986L69.7942 112.56C68.2828 112.213 67.0925 111.653 66.2232 110.881C65.3538 110.102 64.922 109.051 64.9277 107.727C64.922 106.648 65.2118 105.702 65.797 104.889C66.3822 104.077 67.1919 103.443 68.226 102.989C69.2601 102.534 70.4391 102.307 71.7629 102.307C73.1152 102.307 74.2885 102.537 75.2828 102.997C76.2828 103.452 77.0584 104.091 77.6095 104.915C78.1607 105.739 78.4419 106.693 78.4533 107.778H74.4135ZM92.6572 107.778C92.6004 107.153 92.3476 106.668 91.8987 106.321C91.4555 105.969 90.822 105.793 89.9982 105.793C89.4527 105.793 88.9982 105.864 88.6345 106.006C88.2709 106.148 87.9982 106.344 87.8163 106.594C87.6345 106.838 87.5408 107.119 87.5351 107.438C87.5237 107.699 87.5749 107.929 87.6885 108.128C87.8078 108.327 87.9783 108.503 88.1999 108.656C88.4271 108.804 88.6999 108.935 89.018 109.048C89.3362 109.162 89.6942 109.261 90.0919 109.347L91.5919 109.688C92.4555 109.875 93.2169 110.125 93.876 110.438C94.5408 110.75 95.0976 111.122 95.5464 111.554C96.001 111.986 96.3447 112.483 96.5777 113.045C96.8107 113.608 96.93 114.239 96.9357 114.938C96.93 116.04 96.6516 116.986 96.1004 117.776C95.5493 118.565 94.7567 119.17 93.7226 119.591C92.6942 120.011 91.4527 120.222 89.9982 120.222C88.5379 120.222 87.2652 120.003 86.18 119.565C85.0947 119.128 84.251 118.463 83.6487 117.571C83.0464 116.679 82.7368 115.551 82.7197 114.188H86.7595C86.7936 114.75 86.9442 115.219 87.2112 115.594C87.4783 115.969 87.8447 116.253 88.3107 116.446C88.7822 116.639 89.3277 116.736 89.947 116.736C90.5152 116.736 90.9982 116.659 91.3959 116.506C91.7993 116.352 92.1089 116.139 92.3249 115.866C92.5408 115.594 92.6516 115.281 92.6572 114.929C92.6516 114.599 92.5493 114.318 92.3504 114.085C92.1516 113.847 91.8447 113.642 91.43 113.472C91.0209 113.295 90.4982 113.134 89.8618 112.986L88.0379 112.56C86.5266 112.213 85.3362 111.653 84.4669 110.881C83.5976 110.102 83.1658 109.051 83.1714 107.727C83.1658 106.648 83.4555 105.702 84.0408 104.889C84.626 104.077 85.4357 103.443 86.4697 102.989C87.5038 102.534 88.6828 102.307 90.0067 102.307C91.3589 102.307 92.5322 102.537 93.5266 102.997C94.5266 103.452 95.3021 104.091 95.8533 104.915C96.4044 105.739 96.6857 106.693 96.697 107.778H92.6572Z" fill="black"/>
<path d="M63.4119 162.545H67.571V174.614C67.5653 175.744 67.2955 176.733 66.7614 177.58C66.2273 178.42 65.4886 179.074 64.5455 179.54C63.608 180.006 62.5227 180.239 61.2898 180.239C60.1989 180.239 59.2074 180.048 58.3153 179.668C57.429 179.287 56.7216 178.696 56.1932 177.895C55.6705 177.094 55.4119 176.068 55.4176 174.818H59.6193C59.6364 175.267 59.7216 175.651 59.875 175.969C60.0341 176.281 60.2528 176.517 60.5312 176.676C60.8097 176.835 61.142 176.915 61.5284 176.915C61.9318 176.915 62.2727 176.83 62.5511 176.659C62.8295 176.483 63.0398 176.224 63.1818 175.884C63.3295 175.543 63.4063 175.119 63.4119 174.614V162.545ZM84.0484 170.906L80.2217 171.009C80.182 170.736 80.074 170.494 79.8979 170.284C79.7217 170.068 79.4916 169.901 79.2075 169.781C78.9291 169.656 78.6053 169.594 78.2359 169.594C77.753 169.594 77.3411 169.69 77.0001 169.884C76.6649 170.077 76.5001 170.338 76.5058 170.668C76.5001 170.923 76.6024 171.145 76.8126 171.332C77.0286 171.52 77.4121 171.67 77.9632 171.784L80.4859 172.261C81.7928 172.511 82.7643 172.926 83.4007 173.506C84.0428 174.085 84.3666 174.852 84.3723 175.807C84.3666 176.705 84.0996 177.486 83.5712 178.151C83.0484 178.815 82.3325 179.332 81.4234 179.702C80.5143 180.065 79.4746 180.247 78.3041 180.247C76.4348 180.247 74.9604 179.864 73.8808 179.097C72.807 178.324 72.1933 177.29 72.0399 175.994L76.1564 175.892C76.2473 176.369 76.4831 176.733 76.8638 176.983C77.2445 177.233 77.7303 177.358 78.3212 177.358C78.8553 177.358 79.2899 177.259 79.6251 177.06C79.9604 176.861 80.1308 176.597 80.1365 176.267C80.1308 175.972 80.0001 175.736 79.7445 175.56C79.4888 175.378 79.0882 175.236 78.5428 175.134L76.2587 174.699C74.9462 174.46 73.9689 174.02 73.3268 173.378C72.6848 172.73 72.3666 171.906 72.3723 170.906C72.3666 170.031 72.5996 169.284 73.0712 168.665C73.5428 168.04 74.2132 167.562 75.0825 167.233C75.9518 166.903 76.9774 166.739 78.1592 166.739C79.932 166.739 81.3297 167.111 82.3524 167.855C83.3751 168.594 83.9405 169.611 84.0484 170.906Z" fill="black"/>
<rect x="143" y="100" width="249" height="20" rx="10" fill="#FFDD00"/>
<rect x="143" y="160" width="167" height="20" rx="10" fill="#FF0000"/>
<path d="M414.236 115.139C413.652 115.139 413.127 115.023 412.66 114.791C412.192 114.559 411.818 114.241 411.536 113.837C411.254 113.432 411.1 112.972 411.074 112.455H412.267C412.313 112.915 412.522 113.296 412.893 113.598C413.268 113.896 413.715 114.045 414.236 114.045C414.653 114.045 415.025 113.948 415.349 113.752C415.678 113.557 415.934 113.288 416.12 112.947C416.309 112.602 416.403 112.213 416.403 111.778C416.403 111.334 416.306 110.938 416.11 110.59C415.918 110.239 415.653 109.962 415.315 109.76C414.977 109.558 414.59 109.455 414.156 109.452C413.845 109.448 413.525 109.496 413.197 109.596C412.869 109.692 412.598 109.816 412.386 109.969L411.233 109.83L411.849 104.818H417.139V105.912H412.884L412.526 108.915H412.585C412.794 108.749 413.056 108.612 413.371 108.502C413.686 108.393 414.014 108.338 414.355 108.338C414.978 108.338 415.533 108.487 416.021 108.786C416.511 109.08 416.896 109.485 417.174 109.999C417.456 110.512 417.597 111.099 417.597 111.759C417.597 112.408 417.451 112.988 417.159 113.499C416.871 114.006 416.473 114.407 415.966 114.702C415.459 114.993 414.882 115.139 414.236 115.139ZM424.293 115.139C423.544 115.139 422.906 114.935 422.379 114.528C421.852 114.117 421.449 113.522 421.17 112.743C420.892 111.961 420.753 111.016 420.753 109.909C420.753 108.809 420.892 107.869 421.17 107.09C421.452 106.308 421.856 105.711 422.383 105.3C422.914 104.886 423.55 104.679 424.293 104.679C425.035 104.679 425.67 104.886 426.197 105.3C426.727 105.711 427.131 106.308 427.41 107.09C427.691 107.869 427.832 108.809 427.832 109.909C427.832 111.016 427.693 111.961 427.415 112.743C427.136 113.522 426.734 114.117 426.207 114.528C425.68 114.935 425.042 115.139 424.293 115.139ZM424.293 114.045C425.035 114.045 425.612 113.687 426.023 112.972C426.434 112.256 426.639 111.235 426.639 109.909C426.639 109.027 426.545 108.277 426.356 107.657C426.17 107.037 425.902 106.565 425.55 106.24C425.202 105.915 424.783 105.753 424.293 105.753C423.557 105.753 422.982 106.116 422.567 106.842C422.153 107.564 421.946 108.587 421.946 109.909C421.946 110.791 422.039 111.54 422.224 112.156C422.41 112.773 422.677 113.242 423.025 113.563C423.376 113.885 423.799 114.045 424.293 114.045ZM436.312 113.091V112.554C436.312 112.183 436.388 111.843 436.541 111.535C436.696 111.223 436.922 110.975 437.217 110.789C437.515 110.6 437.876 110.506 438.301 110.506C438.731 110.506 439.093 110.6 439.384 110.789C439.676 110.975 439.896 111.223 440.046 111.535C440.195 111.843 440.269 112.183 440.269 112.554V113.091C440.269 113.462 440.193 113.804 440.041 114.115C439.891 114.423 439.669 114.672 439.374 114.861C439.083 115.046 438.725 115.139 438.301 115.139C437.87 115.139 437.507 115.046 437.212 114.861C436.917 114.672 436.693 114.423 436.541 114.115C436.388 113.804 436.312 113.462 436.312 113.091ZM437.326 112.554V113.091C437.326 113.399 437.399 113.676 437.545 113.921C437.691 114.163 437.943 114.284 438.301 114.284C438.649 114.284 438.894 114.163 439.036 113.921C439.182 113.676 439.255 113.399 439.255 113.091V112.554C439.255 112.246 439.185 111.971 439.046 111.729C438.907 111.483 438.658 111.361 438.301 111.361C437.953 111.361 437.702 111.483 437.55 111.729C437.401 111.971 437.326 112.246 437.326 112.554ZM431.241 107.264V106.727C431.241 106.356 431.317 106.016 431.47 105.708C431.625 105.397 431.851 105.148 432.146 104.962C432.444 104.773 432.805 104.679 433.23 104.679C433.66 104.679 434.022 104.773 434.313 104.962C434.605 105.148 434.825 105.397 434.975 105.708C435.124 106.016 435.198 106.356 435.198 106.727V107.264C435.198 107.635 435.122 107.977 434.97 108.288C434.82 108.597 434.598 108.845 434.303 109.034C434.012 109.22 433.654 109.312 433.23 109.312C432.799 109.312 432.436 109.22 432.141 109.034C431.846 108.845 431.622 108.597 431.47 108.288C431.317 107.977 431.241 107.635 431.241 107.264ZM432.255 106.727V107.264C432.255 107.572 432.328 107.849 432.474 108.094C432.62 108.336 432.872 108.457 433.23 108.457C433.578 108.457 433.823 108.336 433.965 108.094C434.111 107.849 434.184 107.572 434.184 107.264V106.727C434.184 106.419 434.114 106.144 433.975 105.902C433.836 105.657 433.587 105.534 433.23 105.534C432.881 105.534 432.631 105.657 432.479 105.902C432.33 106.144 432.255 106.419 432.255 106.727ZM431.619 115L438.619 104.818H439.752L432.752 115H431.619Z" fill="black"/>
<path d="M324.815 172.912V171.898L329.29 164.818H330.026V166.389H329.528L326.148 171.739V171.818H332.173V172.912H324.815ZM329.608 175V172.604V172.131V164.818H330.781V175H329.608ZM338.757 175.139C338.008 175.139 337.37 174.935 336.843 174.528C336.316 174.117 335.914 173.522 335.635 172.743C335.357 171.961 335.218 171.016 335.218 169.909C335.218 168.809 335.357 167.869 335.635 167.09C335.917 166.308 336.321 165.711 336.848 165.3C337.379 164.886 338.015 164.679 338.757 164.679C339.5 164.679 340.135 164.886 340.662 165.3C341.192 165.711 341.596 166.308 341.875 167.09C342.156 167.869 342.297 168.809 342.297 169.909C342.297 171.016 342.158 171.961 341.88 172.743C341.601 173.522 341.198 174.117 340.671 174.528C340.144 174.935 339.506 175.139 338.757 175.139ZM338.757 174.045C339.5 174.045 340.077 173.687 340.488 172.972C340.899 172.256 341.104 171.235 341.104 169.909C341.104 169.027 341.01 168.277 340.821 167.657C340.635 167.037 340.367 166.565 340.015 166.24C339.667 165.915 339.248 165.753 338.757 165.753C338.022 165.753 337.447 166.116 337.032 166.842C336.618 167.564 336.411 168.587 336.411 169.909C336.411 170.791 336.504 171.54 336.689 172.156C336.875 172.773 337.142 173.242 337.49 173.563C337.841 173.885 338.264 174.045 338.757 174.045ZM350.777 173.091V172.554C350.777 172.183 350.853 171.843 351.005 171.535C351.161 171.223 351.387 170.975 351.682 170.789C351.98 170.6 352.341 170.506 352.765 170.506C353.196 170.506 353.558 170.6 353.849 170.789C354.141 170.975 354.361 171.223 354.51 171.535C354.66 171.843 354.734 172.183 354.734 172.554V173.091C354.734 173.462 354.658 173.804 354.505 174.115C354.356 174.423 354.134 174.672 353.839 174.861C353.548 175.046 353.19 175.139 352.765 175.139C352.335 175.139 351.972 175.046 351.677 174.861C351.382 174.672 351.158 174.423 351.005 174.115C350.853 173.804 350.777 173.462 350.777 173.091ZM351.791 172.554V173.091C351.791 173.399 351.864 173.676 352.01 173.921C352.156 174.163 352.407 174.284 352.765 174.284C353.113 174.284 353.359 174.163 353.501 173.921C353.647 173.676 353.72 173.399 353.72 173.091V172.554C353.72 172.246 353.65 171.971 353.511 171.729C353.372 171.483 353.123 171.361 352.765 171.361C352.417 171.361 352.167 171.483 352.015 171.729C351.866 171.971 351.791 172.246 351.791 172.554ZM345.706 167.264V166.727C345.706 166.356 345.782 166.016 345.934 165.708C346.09 165.397 346.316 165.148 346.611 164.962C346.909 164.773 347.27 164.679 347.694 164.679C348.125 164.679 348.486 164.773 348.778 164.962C349.07 165.148 349.29 165.397 349.439 165.708C349.589 166.016 349.663 166.356 349.663 166.727V167.264C349.663 167.635 349.587 167.977 349.434 168.288C349.285 168.597 349.063 168.845 348.768 169.034C348.477 169.22 348.119 169.312 347.694 169.312C347.263 169.312 346.901 169.22 346.606 169.034C346.311 168.845 346.087 168.597 345.934 168.288C345.782 167.977 345.706 167.635 345.706 167.264ZM346.72 166.727V167.264C346.72 167.572 346.793 167.849 346.939 168.094C347.085 168.336 347.336 168.457 347.694 168.457C348.042 168.457 348.288 168.336 348.43 168.094C348.576 167.849 348.649 167.572 348.649 167.264V166.727C348.649 166.419 348.579 166.144 348.44 165.902C348.301 165.657 348.052 165.534 347.694 165.534C347.346 165.534 347.096 165.657 346.944 165.902C346.794 166.144 346.72 166.419 346.72 166.727ZM346.084 175L353.084 164.818H354.217L347.217 175H346.084Z" fill="black"/>
</svg>
